<svg width="16" height="16" viewBox="0 0 16 16" fill="none" xmlns="http://www.w3.org/2000/svg">
<path d="M14.4531 7.45312H8.54688V1.54688C8.54688 1.24484 8.30204 1 8 1C7.69796 1 7.45312 1.24484 7.45312 1.54688V7.45312H1.54688C1.24484 7.45312 1 7.69796 1 8C1 8.30204 1.24484 8.54688 1.54688 8.54688H7.45312V14.4531C7.45312 14.7552 7.69796 15 8 15C8.30204 15 8.54688 14.7552 8.54688 14.4531V8.54688H14.4531C14.7552 8.54688 15 8.30204 15 8C15 7.69796 14.7552 7.45312 14.4531 7.45312Z" fill="white" stroke="white" stroke-width="0.5"/>
</svg>
