<svg width="19" height="19" viewBox="0 0 19 19" fill="none" xmlns="http://www.w3.org/2000/svg">
<circle cx="9.5" cy="9.5" r="9.5" fill="#D6D1CE"/>
<path d="M9.50007 10.09L12.3579 12.9478C12.4393 13.0293 12.5464 13.07 12.6529 13.07C12.7594 13.07 12.8664 13.0293 12.9479 12.9478L12.9479 12.9478C13.1108 12.7849 13.1108 12.5207 12.9479 12.3578C12.9479 12.3578 12.9479 12.3578 12.9479 12.3578L10.0901 9.50002L12.9479 6.6422C13.1108 6.47928 13.1108 6.21511 12.9479 6.05219C12.785 5.8893 12.5208 5.88925 12.3579 6.0522C12.3579 6.0522 12.3579 6.0522 12.3579 6.05221L9.50007 8.91001L6.64228 6.0522C6.47935 5.88927 6.21519 5.88926 6.05227 6.05221C5.88938 6.21512 5.88933 6.47927 6.05227 6.6422C6.05228 6.6422 6.05228 6.6422 6.05228 6.64221L8.91007 9.5L6.05227 12.3578C5.88935 12.5207 5.88934 12.7849 6.05227 12.9478C6.13372 13.0293 6.24076 13.07 6.34728 13.07C6.45382 13.07 6.56083 13.0293 6.64228 12.9478L6.64229 12.9478L9.50007 10.09Z" fill="white" stroke="white" stroke-width="0.3"/>
</svg>
