<svg width="53" height="44" viewBox="0 0 53 44" fill="none" xmlns="http://www.w3.org/2000/svg">
<path d="M52.2827 12.5456L47.01 11.7654L43.3755 15.6691L42.4545 10.4044L37.5375 8.1708L42.3357 5.69635L43.016 0.382093L46.7893 4.13459L52.1015 3.0225L49.6673 7.89647L52.2827 12.5456Z" fill="#E18314"/>
<path d="M22.2006 29.5844L25.8184 29.0879L27.4308 25.9015L28.9645 29.096L32.5597 29.6808L29.9305 32.1981L30.4814 35.6976L27.3437 33.986L24.1892 35.6816L24.7792 32.0963L22.2006 29.5844Z" fill="#E18314"/>
<path d="M18.5421 6.01082L20.7619 6.21692L22.1824 4.43301L22.7614 6.58093L24.8062 7.37854L22.9366 8.58565L22.8097 10.7737L21.1038 9.33374L18.949 9.91321L19.751 7.87369L18.5421 6.01082Z" fill="#E18314"/>
<path d="M12.9662 43.1946C11.9693 42.8774 10.9724 42.5603 10.0008 42.3247C9.0293 42.0892 8.05778 41.8537 7.02978 41.7252C6.08367 41.5713 5.08109 41.5244 4.13499 41.3705C3.18888 41.2166 2.16088 41.0882 1.18936 40.8526C0.703593 40.7349 0.469163 40.2705 0.531275 39.8931C0.618808 39.5973 0.895563 39.3324 1.22316 39.2306C2.2568 39.0888 3.34128 39.1102 4.45118 39.2133C5.47918 39.3417 6.58345 39.7151 7.4985 40.0577C8.49545 40.3749 9.46134 40.8807 10.4018 41.305C11.3677 41.8108 12.2517 42.3421 13.0792 42.9805C13.1046 43.0621 13.1046 43.0621 13.13 43.1437C13.0481 43.1692 12.9662 43.1946 12.9662 43.1946Z" fill="#E18314"/>
</svg>
