<svg width="55" height="29" viewBox="0 0 55 29" fill="none" xmlns="http://www.w3.org/2000/svg">
<path d="M9.20603 21.8588C11.4623 22.4288 13.7612 22.947 15.9654 23.4736C13.946 22.4032 11.884 21.3845 9.86458 20.3141C10.9452 19.6439 11.9831 19.0254 13.0636 18.3552C11.8598 18.7484 10.6986 19.0899 9.49472 19.4831C10.0346 17.2293 10.5224 14.9321 11.0624 12.6784C10.0295 14.7834 8.94441 16.8451 7.86886 19.0019C7.13397 17.867 6.44173 16.6805 5.70685 15.5456C6.1147 16.7571 6.4799 18.0202 6.9399 19.2751C4.73577 18.7485 2.62643 18.2137 0.422295 17.6871C2.44167 18.7575 4.50369 19.7762 6.47093 20.8031C5.34771 21.5251 4.26715 22.1953 3.09178 22.8738C4.39043 22.4723 5.59429 22.0791 6.89294 21.6776C6.43831 23.828 5.88887 25.9866 5.43424 28.137C6.43399 26.1788 7.39109 24.2722 8.39085 22.3139C9.02144 23.362 9.70419 24.4534 10.3774 25.4498C10.0217 24.2817 9.61388 23.0703 9.20603 21.8588Z" fill="#E18314"/>
<path d="M27.4308 0.684758C27.5928 5.17954 26.1285 7.27441 21.9245 8.74572C21.6496 8.86573 21.7398 9.28954 22.0242 9.26464C26.5081 9.15989 28.6176 10.6541 30.1398 14.8859C30.2631 15.1629 30.685 15.078 30.6565 14.7927C30.4945 10.2979 31.9587 8.20301 36.1627 6.7317C36.4376 6.6117 36.3475 6.18788 36.0631 6.21278C31.5792 6.31753 29.4697 4.82335 27.9474 0.591563C27.8763 0.357952 27.4023 0.399446 27.4308 0.684758Z" fill="#E18314"/>
<path d="M49.2541 14.8334C49.4347 17.5997 48.558 18.8757 45.9797 19.8689C45.8423 19.9289 45.8708 20.2142 46.0604 20.1976C48.8189 20.052 50.1036 20.9469 51.1279 23.5434C51.1895 23.6819 51.4739 23.657 51.4549 23.4668C51.2743 20.7005 52.151 19.4245 54.7293 18.4313C54.8667 18.3713 54.8382 18.086 54.6486 18.1026C51.89 18.2482 50.6054 17.3533 49.5811 14.7568C49.5194 14.6183 49.2351 14.6432 49.2541 14.8334Z" fill="#E18314"/>
</svg>
