<svg width="48" height="74" viewBox="0 0 48 74" fill="none" xmlns="http://www.w3.org/2000/svg">
<path d="M16.0003 38.9305L18.434 35.2944L16.7827 31.2245L21.0516 32.3947L24.4499 29.5341L24.6219 33.9639L28.3664 36.3392L24.2307 37.8169L23.2014 42.1483L20.4019 38.6272L16.0003 38.9305Z" fill="#E18314"/>
<path d="M11.4351 1.54205L10.5385 4.40008L12.3613 6.71768L9.42926 6.73071L7.73019 9.19139L6.76548 6.35522L3.94939 5.53192L6.33258 3.80719L6.16795 0.870641L8.64813 2.57034L11.4351 1.54205Z" fill="#E18314"/>
<path d="M47.73 26.2057L46.7971 27.7795L47.636 29.461L45.8231 29.1344L44.5082 30.3702L44.2591 28.5587L42.6637 27.6943L44.3411 26.9359L44.6625 25.1337L45.9099 26.4465L47.73 26.2057Z" fill="#E18314"/>
<path d="M26.7329 10.5223C27.3202 9.89448 27.9075 9.2667 28.4247 8.62904C28.9419 7.99138 29.4592 7.35372 29.9159 6.63648C30.3631 5.98894 30.7498 5.26182 31.1969 4.61428C31.644 3.96673 32.1008 3.24949 32.618 2.61183C32.8766 2.293 33.3069 2.2826 33.5679 2.46151C33.7589 2.63055 33.8605 2.92909 33.8218 3.20787C33.5657 4.02445 33.1693 4.82126 32.7029 5.60819C32.2461 6.32543 31.579 7.01302 31.0013 7.57111C30.414 8.19889 29.6962 8.73721 29.0484 9.28542C28.3306 9.82374 27.6224 10.2924 26.8537 10.6814C26.7836 10.6715 26.7836 10.6715 26.7135 10.6617C26.7232 10.592 26.7329 10.5223 26.7329 10.5223Z" fill="#E18314"/>
<path d="M7.25004 64.4779C4.93203 65.217 2.60435 66.0258 0.356437 66.7748C2.73735 66.613 5.12793 66.3815 7.50884 66.2197C6.91432 67.415 6.32947 68.5405 5.73495 69.7357C6.59054 68.7194 7.43647 67.7728 8.29206 66.7565C9.04401 69.0653 9.86607 71.3839 10.618 73.6927C10.3858 71.244 10.2236 68.8052 10.001 66.2868C11.2749 66.8927 12.5391 67.5683 13.813 68.1742C12.7881 67.3192 11.7728 66.3945 10.6777 65.5295C12.9256 64.7805 15.0938 64.0914 17.3417 63.3424C14.9608 63.5042 12.5702 63.7356 10.2594 63.9073C10.8636 62.6424 11.4581 61.4472 12.1324 60.1921C11.197 61.2682 10.3414 62.2846 9.40607 63.3607C8.6348 61.1913 7.94329 58.9621 7.17201 56.7927C7.3535 59.0921 7.54466 61.3218 7.72616 63.6213C6.59244 63.0351 5.38863 62.4391 4.24525 61.9226C5.20012 62.7678 6.22508 63.6228 7.25004 64.4779Z" fill="#E18314"/>
</svg>
