<svg width="55" height="28" viewBox="0 0 55 28" fill="none" xmlns="http://www.w3.org/2000/svg">
<path d="M9.08249 21.6401C11.3388 22.2101 13.6377 22.7283 15.8418 23.2549C13.8224 22.1845 11.7604 21.1658 9.74105 20.0955C10.8216 19.4252 11.8595 18.8067 12.9401 18.1365C11.7362 18.5297 10.575 18.8712 9.37118 19.2644C9.91111 17.0106 10.3989 14.7134 10.9388 12.4597C9.90593 14.5647 8.82088 16.6264 7.74532 18.7832C7.01044 17.6483 6.3182 16.4618 5.58331 15.3269C5.99116 16.5384 6.35637 17.8015 6.81636 19.0564C4.61223 18.5298 2.50289 17.995 0.29876 17.4685C2.31814 18.5388 4.38016 19.5575 6.34739 20.5844C5.22418 21.3064 4.14361 21.9766 2.96825 22.6551C4.2669 22.2536 5.47076 21.8604 6.76941 21.4589C6.31477 23.6093 5.76534 25.7679 5.31071 27.9183C6.31046 25.9601 7.26756 24.0535 8.26731 22.0952C8.89791 23.1433 9.58065 24.2347 10.2539 25.2311C9.89819 24.063 9.49034 22.8516 9.08249 21.6401Z" fill="#E18314"/>
<path d="M27.3072 0.466069C27.4692 4.96085 26.005 7.05572 21.801 8.52703C21.5261 8.64704 21.6162 9.07085 21.9006 9.04596C26.3845 8.9412 28.494 10.4354 30.0163 14.6672C30.1396 14.9442 30.5614 14.8593 30.5329 14.574C30.3709 10.0792 31.8352 7.98432 36.0392 6.51301C36.3141 6.39301 36.2239 5.96919 35.9395 5.99409C31.4557 6.09884 29.3461 4.60466 27.8239 0.372874C27.7527 0.139263 27.2788 0.180757 27.3072 0.466069Z" fill="#E18314"/>
<path d="M49.1305 14.6147C49.3112 17.381 48.4345 18.657 45.8562 19.6502C45.7188 19.7102 45.7472 19.9955 45.9368 19.9789C48.6954 19.8333 49.9801 20.7282 51.0044 23.3247C51.066 23.4632 51.3504 23.4383 51.3314 23.2481C51.1508 20.4818 52.0274 19.2058 54.6057 18.2126C54.7432 18.1526 54.7147 17.8673 54.5251 17.8839C51.7665 18.0295 50.4818 17.1346 49.4576 14.5381C49.3959 14.3996 49.1115 14.4245 49.1305 14.6147Z" fill="#E18314"/>
</svg>
