<svg width="56" height="37" viewBox="0 0 56 37" fill="none" xmlns="http://www.w3.org/2000/svg">
<path d="M49.7915 30.9554L46.0215 27.1874L40.7767 28.1574L43.1736 23.3803L40.5552 18.657L45.883 19.5282L49.5955 15.6653L50.3904 20.9272L55.3195 23.1988L50.4607 25.6632L49.7915 30.9554Z" fill="#E18314"/>
<path d="M15.4797 26.7183L18.6811 28.4748L21.8745 26.8763L21.2032 30.3556L23.7422 32.9673L20.1309 33.4227L18.4884 36.5616L16.9881 33.3175L13.4443 32.7999L16.0542 30.272L15.4797 26.7183Z" fill="#E18314"/>
<path d="M26.5857 5.60535L28.2458 7.09336L30.4494 6.50686L29.6349 8.57697L30.8019 10.4358L28.5812 10.2915L27.1757 11.9732L26.6635 9.80034L24.5876 8.98198L26.4468 7.82171L26.5857 5.60535Z" fill="#E18314"/>
<path d="M8.95454 11.1478C8.3428 10.2992 7.73105 9.45047 7.09109 8.6825C6.45113 7.91452 5.81117 7.14655 5.06206 6.43092C4.39388 5.74365 3.61655 5.10872 2.94837 4.42146C2.28019 3.73419 1.53109 3.01856 0.891124 2.25058C0.571142 1.8666 0.659522 1.35396 0.934245 1.08786C1.18075 0.902467 1.56089 0.854537 1.8846 0.968022C2.79928 1.4699 3.65754 2.13319 4.48757 2.8772C5.23668 3.59283 5.90113 4.5506 6.43195 5.37092C7.0437 6.2196 7.51808 7.20134 8.02068 8.10236C8.49507 9.0841 8.88852 10.0375 9.17283 11.0432C9.14461 11.1239 9.14461 11.1239 9.1164 11.2046C9.03547 11.1762 8.95454 11.1478 8.95454 11.1478Z" fill="#E18314"/>
</svg>
